<?xml version="1.0" encoding="UTF-8" standalone="no"?>
<!-- Created with Inkscape (http://www.inkscape.org/) -->
<svg xmlns:svg="http://www.w3.org/2000/svg" xmlns="http://www.w3.org/2000/svg" version="1.0" width="605" height="185">
  <path d="M 182.46,32.78 L 182.46,124.33 M 234.91,32.78 L 234.91,124.33 M 287.36,32.78 L 287.36,124.33 M 339.83,32.78 L 339.83,124.33 M 392.27,32.78 L 392.27,124.33 M 444.85,32.78 L 444.85,124.33 M 497.32,32.78 L 497.32,124.33 M 549.79,32.78 L 549.79,124.33" style="fill:none;stroke:#231f20;stroke-width:0.52905;stroke-linecap:round;stroke-linejoin:round;stroke-miterlimit:10;stroke-dasharray:none;stroke-opacity:1"/>
  <path d="M 234.91,137.82 L 234.91,180.09 M 497.32,137.82 L 497.32,180.09" style="fill:none;stroke:#231f20;stroke-width:0.52905;stroke-linecap:round;stroke-linejoin:round;stroke-miterlimit:10;stroke-dasharray:17.70576, 6.60732;stroke-dashoffset:0;stroke-opacity:1"/>
  <path d="M 227.4,111.53 L 242.44,137.82 M 242.44,111.53 L 227.4,137.82 M 174.93,111.53 L 189.98,137.82 M 129.99,111.53 L 174.93,111.53 M 129.99,137.82 L 174.93,137.82 M 189.98,111.53 L 174.93,137.82 M 279.83,111.53 L 295.02,137.82 M 295.02,111.53 L 279.83,137.82 M 242.44,111.53 L 279.83,111.53 M 242.44,137.82 L 279.83,137.82 M 189.98,111.53 L 227.4,111.53 M 189.98,137.82 L 227.4,137.82 M 557.32,111.53 L 575.93,111.53 M 557.32,137.82 L 575.93,137.82 M 332.29,111.53 L 347.49,137.82 M 347.49,111.53 L 332.29,137.82 M 384.76,111.53 L 399.96,137.82 M 399.96,111.53 L 384.76,137.82 M 437.19,111.53 L 452.39,137.82 M 452.39,111.53 L 437.19,137.82 M 489.66,111.53 L 504.85,137.82 M 504.85,111.53 L 489.66,137.82 M 542.12,111.53 L 557.32,137.82 M 557.32,111.53 L 542.12,137.82 M 504.85,111.53 L 542.12,111.53 M 504.85,137.82 L 542.12,137.82 M 452.39,111.53 L 489.66,111.53 M 452.39,137.82 L 489.66,137.82 M 399.96,111.53 L 437.19,111.53 M 399.96,137.82 L 437.19,137.82 M 347.49,111.53 L 373.39,111.53 M 347.49,137.82 L 373.39,137.82 M 295.02,111.53 L 332.29,111.53 M 295.02,137.82 L 332.29,137.82 M 377.23,111.53 L 384.76,111.53 M 377.23,137.82 L 384.76,137.82" style="fill:none;stroke:#000000;stroke-width:2.24672;stroke-linecap:round;stroke-linejoin:round;stroke-miterlimit:10;stroke-dasharray:none;stroke-opacity:1"/>
  <path d="M 370.61,144.42 C 370.03,144.01 369.66,143.53 369.49,142.97 C 369.06,141.37 370.59,139.39 373.39,137.95 M 376.15,131.49 C 376.74,131.88 377.13,132.36 377.26,132.92 C 377.71,134.54 376.18,136.52 373.39,137.94 M 374.43,144.16 C 373.85,143.77 373.48,143.27 373.33,142.71 C 372.88,141.12 374.37,139.17 377.12,137.75 M 380.01,131.34 C 380.58,131.75 380.96,132.23 381.09,132.79 C 381.53,134.39 380.01,136.37 377.21,137.82 M 370.61,118.14 C 370.03,117.73 369.66,117.24 369.49,116.68 C 369.06,115.08 370.59,113.1 373.39,111.65 M 376.15,105.2 C 376.74,105.57 377.13,106.05 377.26,106.61 C 377.71,108.25 376.18,110.21 373.39,111.65 M 374.43,117.99 C 373.85,117.61 373.48,117.11 373.33,116.57 C 372.88,114.93 374.43,112.95 377.23,111.53 M 380.01,105.05 C 380.58,105.46 380.96,105.94 381.09,106.5 C 381.53,108.1 380.01,110.08 377.21,111.52 M 370.61,91.98 C 370.03,91.58 369.66,91.1 369.49,90.54 C 369.06,88.9 370.59,86.94 373.39,85.51 M 376.15,79.02 C 376.74,79.41 377.13,79.91 377.26,80.47 C 377.71,82.08 376.18,84.05 373.39,85.51 M 374.43,91.7 C 373.85,91.31 373.48,90.82 373.33,90.26 C 372.88,88.64 374.43,86.66 377.23,85.25 M 380.01,78.89 C 380.58,79.28 380.96,79.76 381.09,80.32 C 381.53,81.93 380.04,83.87 377.32,85.32 M 370.61,13.22 C 370.03,12.83 369.66,12.34 369.49,11.78 C 369.06,10.14 370.59,8.19 373.39,6.75 M 376.15,0.26 C 376.74,0.67 377.13,1.16 377.26,1.72 C 377.71,3.32 376.18,5.3 373.39,6.75 M 374.43,13.09 C 373.85,12.7 373.48,12.19 373.33,11.64 C 372.88,10.03 374.43,8.06 377.23,6.6 M 380.01,0.13 C 380.58,0.52 380.96,1.01 381.09,1.57 C 381.53,3.21 380.01,5.18 377.21,6.6" style="fill:none;stroke:#231f20;stroke-width:0.26336;stroke-linecap:round;stroke-linejoin:round;stroke-miterlimit:10;stroke-dasharray:none;stroke-opacity:1"/>
  <path d="M 174.93,59.07 L 189.98,85.23 M 377.23,85.23 L 437.19,85.23 M 129.99,59.07 L 174.93,59.07 M 452.39,59.07 L 575.93,59.07 M 452.39,59.07 L 437.19,85.23 M 189.98,85.23 L 373.39,85.23" style="fill:none;stroke:#0000ff;stroke-width:2.24672;stroke-linecap:round;stroke-linejoin:round;stroke-miterlimit:10;stroke-dasharray:none;stroke-opacity:1"/>
  <path d="M 156.3,6.6 L 182.46,6.6 M 156.3,6.6 L 156.3,32.78 M 182.46,6.6 L 182.46,32.78 M 129.99,32.78 L 156.3,32.78 M 208.75,6.6 L 234.91,6.6 M 208.75,6.6 L 208.75,32.78 M 234.91,6.6 L 234.91,32.78 M 182.46,32.78 L 208.75,32.78 M 261.2,6.6 L 287.36,6.6 M 261.2,6.6 L 261.2,32.78 M 287.36,6.6 L 287.36,32.78 M 234.91,32.78 L 261.2,32.78 M 313.67,6.6 L 339.83,6.6 M 313.67,6.6 L 313.67,32.78 M 339.83,6.6 L 339.83,32.78 M 287.36,32.78 L 313.67,32.78 M 366.11,6.6 L 373.39,6.6 M 366.11,6.6 L 366.11,32.78 M 392.27,6.6 L 392.27,32.78 M 339.83,32.78 L 366.11,32.78 M 418.56,6.6 L 444.85,6.6 M 418.56,6.6 L 418.56,32.78 M 444.85,6.6 L 444.85,32.78 M 392.27,32.78 L 418.56,32.78 M 471.03,6.6 L 497.32,6.6 M 471.03,6.6 L 471.03,32.78 M 497.32,6.6 L 497.32,32.78 M 444.85,32.78 L 471.03,32.78 M 523.48,6.6 L 549.79,6.6 M 523.48,6.6 L 523.48,32.78 M 549.79,6.6 L 549.79,32.78 M 497.32,32.78 L 523.48,32.78 M 549.79,32.78 L 575.93,32.78 M 377.23,6.6 L 392.27,6.6" style="fill:none;stroke:#ff0000;stroke-width:2.24672;stroke-linecap:round;stroke-linejoin:round;stroke-miterlimit:10;stroke-dasharray:none;stroke-opacity:1"/>
  <text xml:space="preserve" style="font-size:14.916px;font-style:normal;font-variant:normal;font-weight:normal;font-stretch:normal;text-align:start;line-height:125%;writing-mode:lr-tb;text-anchor:start;fill:#ff0000;fill-opacity:1;stroke:none;stroke-width:1px;stroke-linecap:butt;stroke-linejoin:miter;stroke-opacity:1;font-family:Arial;-inkscape-font-specification:Arial"><tspan x="1.3279327" y="23.549816" id="tspan2876">Serial clock (SCK)</tspan></text>
  <text xml:space="preserve" style="font-size:14.916px;font-style:normal;font-variant:normal;font-weight:normal;font-stretch:normal;text-align:start;line-height:125%;writing-mode:lr-tb;text-anchor:start;fill:#0000ff;fill-opacity:1;stroke:none;stroke-width:1px;stroke-linecap:butt;stroke-linejoin:miter;stroke-opacity:1;font-family:Arial;-inkscape-font-specification:Arial"><tspan x="6.5718369" y="76.0075" id="tspan2880">Word select (WS)</tspan></text>
  <text xml:space="preserve" style="font-size:14.916px;font-style:normal;font-variant:normal;font-weight:normal;font-stretch:normal;text-align:start;line-height:125%;writing-mode:lr-tb;text-anchor:start;fill:#000000;fill-opacity:1;stroke:none;stroke-width:1px;stroke-linecap:butt;stroke-linejoin:miter;stroke-opacity:1;font-family:Arial;-inkscape-font-specification:Arial">
    <tspan x="17.088781" y="128.53981" id="tspan2884">Serial data (SD)</tspan>
    <tspan x="131.84293" y="164.74132" id="tspan2888">Right channel</tspan>
    <tspan x="323.78098" y="164.74132" id="tspan2892">Left channel</tspan>
    <tspan x="508.47192" y="164.74132" id="tspan2896">Right channel</tspan>
    <tspan x="245.89943" y="130.80815" id="tspan3165">MSB</tspan>
    <tspan x="507.89941" y="130.80815" id="tspan3173">MSB</tspan>
    <tspan x="455.89941" y="130.80815" id="tspan3177">LSB</tspan>
    <tspan x="195.29272" y="130.80815" id="tspan3181">LSB</tspan>
  </text>
</svg>