<svg version="1.1" viewBox="0.0 0.0 960.0 720.0" fill="none" stroke="none" stroke-linecap="square" stroke-miterlimit="10" xmlns:xlink="http://www.w3.org/1999/xlink" xmlns="http://www.w3.org/2000/svg"><clipPath id="p.0"><path d="m0 0l960.0 0l0 720.0l-960.0 0l0 -720.0z" clip-rule="nonzero"/></clipPath><g clip-path="url(#p.0)"><path fill="#000000" fill-opacity="0.0" d="m0 0l960.0 0l0 720.0l-960.0 0z" fill-rule="evenodd"/><path fill="#f4cccc" d="m377.7034 295.83203l0 0c0 -5.070587 4.1105347 -9.181122 9.181122 -9.181122l47.968506 0c2.434967 0 4.770233 0.9673157 6.4920044 2.689087c1.7218018 1.7218018 2.689087 4.0570374 2.689087 6.492035l0 36.724396c0 5.070587 -4.110504 9.181091 -9.181091 9.181091l-47.968506 0l0 0c-5.070587 0 -9.181122 -4.110504 -9.181122 -9.181091z" fill-rule="evenodd"/><path stroke="#000000" stroke-width="1.0" stroke-linejoin="round" stroke-linecap="butt" d="m377.7034 295.83203l0 0c0 -5.070587 4.1105347 -9.181122 9.181122 -9.181122l47.968506 0c2.434967 0 4.770233 0.9673157 6.4920044 2.689087c1.7218018 1.7218018 2.689087 4.0570374 2.689087 6.492035l0 36.724396c0 5.070587 -4.110504 9.181091 -9.181091 9.181091l-47.968506 0l0 0c-5.070587 0 -9.181122 -4.110504 -9.181122 -9.181091z" fill-rule="evenodd"/><path fill="#000000" d="m406.46216 314.52048q0 -2.359375 0.484375 -3.796875q0.484375 -1.453125 1.4375 -2.234375q0.96875 -0.78125 2.421875 -0.78125q1.078125 0 1.890625 0.4375q0.8125 0.421875 1.328125 1.25q0.53125 0.8125 0.828125 1.984375q0.3125 1.15625 0.3125 3.140625q0 2.359375 -0.484375 3.8125q-0.484375 1.4375 -1.453125 2.234375q-0.953125 0.78125 -2.421875 0.78125q-1.921875 0 -3.03125 -1.390625q-1.3125 -1.671875 -1.3125 -5.4375zm1.671875 0q0 3.296875 0.765625 4.390625q0.78125 1.078125 1.90625 1.078125q1.140625 0 1.90625 -1.09375q0.765625 -1.09375 0.765625 -4.375q0 -3.296875 -0.765625 -4.375q-0.765625 -1.078125 -1.921875 -1.078125q-1.125 0 -1.796875 0.953125q-0.859375 1.21875 -0.859375 4.5z" fill-rule="nonzero"/><path fill="#d9ead3" d="m377.7034 369.16534l0 0c0 -5.070587 4.1105347 -9.181091 9.181122 -9.181091l47.968506 0c2.434967 0 4.770233 0.96728516 6.4920044 2.689087c1.7218018 1.7217712 2.689087 4.0570374 2.689087 6.4920044l0 36.724426c0 5.070587 -4.110504 9.181091 -9.181091 9.181091l-47.968506 0l0 0c-5.070587 0 -9.181122 -4.110504 -9.181122 -9.181091z" fill-rule="evenodd"/><path stroke="#000000" stroke-width="1.0" stroke-linejoin="round" stroke-linecap="butt" d="m377.7034 369.16534l0 0c0 -5.070587 4.1105347 -9.181091 9.181122 -9.181091l47.968506 0c2.434967 0 4.770233 0.96728516 6.4920044 2.689087c1.7218018 1.7217712 2.689087 4.0570374 2.689087 6.4920044l0 36.724426c0 5.070587 -4.110504 9.181091 -9.181091 9.181091l-47.968506 0l0 0c-5.070587 0 -9.181122 -4.110504 -9.181122 -9.181091z" fill-rule="evenodd"/><path fill="#000000" d="m412.63403 394.44757l-1.640625 0l0 -10.453125q-0.59375 0.5625 -1.5625 1.140625q-0.953125 0.5625 -1.71875 0.84375l0 -1.59375q1.375 -0.640625 2.40625 -1.5625q1.03125 -0.921875 1.453125 -1.78125l1.0625 0l0 13.40625z" fill-rule="nonzero"/><path fill="#f4cccc" d="m377.7034 442.4987l0 0c0 -5.070587 4.1105347 -9.181091 9.181122 -9.181091l47.968506 0c2.434967 0 4.770233 0.96728516 6.4920044 2.6890564c1.7218018 1.7218018 2.689087 4.057068 2.689087 6.492035l0 36.724396c0 5.070587 -4.110504 9.181122 -9.181091 9.181122l-47.968506 0l0 0c-5.070587 0 -9.181122 -4.1105347 -9.181122 -9.181122z" fill-rule="evenodd"/><path stroke="#000000" stroke-width="1.0" stroke-linejoin="round" stroke-linecap="butt" d="m377.7034 442.4987l0 0c0 -5.070587 4.1105347 -9.181091 9.181122 -9.181091l47.968506 0c2.434967 0 4.770233 0.96728516 6.4920044 2.6890564c1.7218018 1.7218018 2.689087 4.057068 2.689087 6.492035l0 36.724396c0 5.070587 -4.110504 9.181122 -9.181091 9.181122l-47.968506 0l0 0c-5.070587 0 -9.181122 -4.1105347 -9.181122 -9.181122z" fill-rule="evenodd"/><path fill="#000000" d="m406.46216 461.18713q0 -2.359375 0.484375 -3.796875q0.484375 -1.453125 1.4375 -2.234375q0.96875 -0.78125 2.421875 -0.78125q1.078125 0 1.890625 0.4375q0.8125 0.421875 1.328125 1.25q0.53125 0.8125 0.828125 1.984375q0.3125 1.15625 0.3125 3.140625q0 2.359375 -0.484375 3.8125q-0.484375 1.4375 -1.453125 2.234375q-0.953125 0.78125 -2.421875 0.78125q-1.921875 0 -3.03125 -1.390625q-1.3125 -1.671875 -1.3125 -5.4375zm1.671875 0q0 3.296875 0.765625 4.390625q0.78125 1.078125 1.90625 1.078125q1.140625 0 1.90625 -1.09375q0.765625 -1.09375 0.765625 -4.375q0 -3.296875 -0.765625 -4.375q-0.765625 -1.078125 -1.921875 -1.078125q-1.125 0 -1.796875 0.953125q-0.859375 1.21875 -0.859375 4.5z" fill-rule="nonzero"/><path fill="#d9ead3" d="m377.7034 515.83203l0 0c0 -5.070587 4.1105347 -9.181122 9.181122 -9.181122l47.968506 0c2.434967 0 4.770233 0.9673157 6.4920044 2.689087c1.7218018 1.7218018 2.689087 4.0570374 2.689087 6.492035l0 36.724426c0 5.0705566 -4.110504 9.181091 -9.181091 9.181091l-47.968506 0l0 0c-5.070587 0 -9.181122 -4.1105347 -9.181122 -9.181091z" fill-rule="evenodd"/><path stroke="#000000" stroke-width="1.0" stroke-linejoin="round" stroke-linecap="butt" d="m377.7034 515.83203l0 0c0 -5.070587 4.1105347 -9.181122 9.181122 -9.181122l47.968506 0c2.434967 0 4.770233 0.9673157 6.4920044 2.689087c1.7218018 1.7218018 2.689087 4.0570374 2.689087 6.492035l0 36.724426c0 5.0705566 -4.110504 9.181091 -9.181091 9.181091l-47.968506 0l0 0c-5.070587 0 -9.181122 -4.1105347 -9.181122 -9.181091z" fill-rule="evenodd"/><path fill="#000000" d="m412.63403 541.1142l-1.640625 0l0 -10.453125q-0.59375 0.5625 -1.5625 1.140625q-0.953125 0.5625 -1.71875 0.84375l0 -1.59375q1.375 -0.640625 2.40625 -1.5625q1.03125 -0.921875 1.453125 -1.78125l1.0625 0l0 13.40625z" fill-rule="nonzero"/><path fill="#cfe2f3" d="m196.72179 148.38321l107.915695 0l0 71.94379l-107.915695 0z" fill-rule="evenodd"/><path stroke="#000000" stroke-width="1.0" stroke-linejoin="round" stroke-linecap="butt" d="m196.72179 148.38321l107.915695 0l0 71.94379l-107.915695 0z" fill-rule="evenodd"/><path fill="#000000" d="m246.27303 187.7751l1.71875 -0.140625q0.1875 1.25 0.875 1.890625q0.703125 0.625 1.6875 0.625q1.1875 0 2.0 -0.890625q0.828125 -0.890625 0.828125 -2.359375q0 -1.40625 -0.796875 -2.21875q-0.78125 -0.8125 -2.0625 -0.8125q-0.78125 0 -1.421875 0.359375q-0.640625 0.359375 -1.0 0.9375l-1.546875 -0.203125l1.296875 -6.859375l6.640625 0l0 1.5625l-5.328125 0l-0.71875 3.59375q1.203125 -0.84375 2.515625 -0.84375q1.75 0 2.953125 1.21875q1.203125 1.203125 1.203125 3.109375q0 1.8125 -1.046875 3.140625q-1.296875 1.625 -3.515625 1.625q-1.8125 0 -2.96875 -1.015625q-1.15625 -1.03125 -1.3125 -2.71875z" fill-rule="nonzero"/><path fill="#d9d2e9" d="m356.91077 148.3819l107.91568 0l0 71.94379l-107.91568 0z" fill-rule="evenodd"/><path stroke="#000000" stroke-width="1.0" stroke-linejoin="round" stroke-linecap="butt" d="m356.91077 148.3819l107.91568 0l0 71.94379l-107.91568 0z" fill-rule="evenodd"/><path fill="#000000" d="m390.8984 184.68004q0 -2.359375 0.484375 -3.796875q0.484375 -1.453125 1.4375 -2.234375q0.96875 -0.78125 2.421875 -0.78125q1.078125 0 1.890625 0.4375q0.8125 0.421875 1.328125 1.25q0.53125 0.8125 0.828125 1.984375q0.3125 1.15625 0.3125 3.140625q0 2.359375 -0.484375 3.8125q-0.484375 1.4375 -1.453125 2.234375q-0.953125 0.78125 -2.421875 0.78125q-1.921875 0 -3.03125 -1.390625q-1.3125 -1.671875 -1.3125 -5.4375zm1.671875 0q0 3.296875 0.765625 4.390625q0.78125 1.078125 1.90625 1.078125q1.140625 0 1.90625 -1.09375q0.765625 -1.09375 0.765625 -4.375q0 -3.296875 -0.765625 -4.375q-0.765625 -1.078125 -1.921875 -1.078125q-1.125 0 -1.796875 0.953125q-0.859375 1.21875 -0.859375 4.5zm14.875732 6.59375l-1.640625 0l0 -10.453125q-0.59375 0.5625 -1.5625 1.140625q-0.953125 0.5625 -1.71875 0.84375l0 -1.59375q1.375 -0.640625 2.40625 -1.5625q1.03125 -0.921875 1.453125 -1.78125l1.0625 0l0 13.40625zm4.203827 -6.59375q0 -2.359375 0.484375 -3.796875q0.484375 -1.453125 1.4375 -2.234375q0.96875 -0.78125 2.421875 -0.78125q1.078125 0 1.890625 0.4375q0.8125 0.421875 1.328125 1.25q0.53125 0.8125 0.828125 1.984375q0.3125 1.15625 0.3125 3.140625q0 2.359375 -0.484375 3.8125q-0.484375 1.4375 -1.453125 2.234375q-0.953125 0.78125 -2.421875 0.78125q-1.921875 0 -3.03125 -1.390625q-1.3125 -1.671875 -1.3125 -5.4375zm1.671875 0q0 3.296875 0.765625 4.390625q0.78125 1.078125 1.90625 1.078125q1.140625 0 1.90625 -1.09375q0.765625 -1.09375 0.765625 -4.375q0 -3.296875 -0.765625 -4.375q-0.765625 -1.078125 -1.921875 -1.078125q-1.125 0 -1.796875 0.953125q-0.859375 1.21875 -0.859375 4.5zm14.875732 6.59375l-1.640625 0l0 -10.453125q-0.59375 0.5625 -1.5625 1.140625q-0.953125 0.5625 -1.71875 0.84375l0 -1.59375q1.375 -0.640625 2.40625 -1.5625q1.03125 -0.921875 1.453125 -1.78125l1.0625 0l0 13.40625z" fill-rule="nonzero"/><path fill="#000000" fill-opacity="0.0" d="m304.63748 184.3551l52.283447 0" fill-rule="evenodd"/><path stroke="#000000" stroke-width="1.0" stroke-linejoin="round" stroke-linecap="butt" d="m304.63748 184.35509l46.283447 0" fill-rule="evenodd"/><path fill="#000000" stroke="#000000" stroke-width="1.0" stroke-linecap="butt" d="m350.92093 186.00682l4.538086 -1.6517334l-4.538086 -1.6517334z" fill-rule="evenodd"/><path fill="#000000" fill-opacity="0.0" d="m410.8686 220.32568l0 66.33072" fill-rule="evenodd"/><path stroke="#000000" stroke-width="1.0" stroke-linejoin="round" stroke-linecap="butt" d="m410.8686 220.32568l0 60.33072" fill-rule="evenodd"/><path fill="#000000" stroke="#000000" stroke-width="1.0" stroke-linecap="butt" d="m409.21686 280.6564l1.6517334 4.538086l1.6517334 -4.538086z" fill-rule="evenodd"/><path fill="#000000" fill-opacity="0.0" d="m410.86877 341.73752l0 18.236237" fill-rule="evenodd"/><path stroke="#000000" stroke-width="1.0" stroke-linejoin="round" stroke-linecap="butt" d="m410.86877 341.73752l0 18.236237" fill-rule="evenodd"/><path fill="#000000" fill-opacity="0.0" d="m410.86877 415.07086l0 18.236237" fill-rule="evenodd"/><path stroke="#000000" stroke-width="1.0" stroke-linejoin="round" stroke-linecap="butt" d="m410.86877 415.07086l0 18.236237" fill-rule="evenodd"/><path fill="#000000" fill-opacity="0.0" d="m410.86877 488.4042l0 18.236206" fill-rule="evenodd"/><path stroke="#000000" stroke-width="1.0" stroke-linejoin="round" stroke-linecap="butt" d="m410.86877 488.4042l0 18.236206" fill-rule="evenodd"/><path fill="#000000" fill-opacity="0.0" d="m444.03412 314.1942l85.4173 0" fill-rule="evenodd"/><path stroke="#000000" stroke-width="1.0" stroke-linejoin="round" stroke-linecap="butt" d="m444.03412 314.1942l85.4173 0" fill-rule="evenodd"/><path fill="#000000" fill-opacity="0.0" d="m574.4278 314.1942l102.299255 0" fill-rule="evenodd"/><path stroke="#000000" stroke-width="1.0" stroke-linejoin="round" stroke-linecap="butt" d="m574.4278 314.1942l102.299255 0" fill-rule="evenodd"/><path fill="#000000" fill-opacity="0.0" d="m444.03412 387.52756l130.39368 0" fill-rule="evenodd"/><path stroke="#000000" stroke-width="1.0" stroke-linejoin="round" stroke-linecap="butt" d="m444.03412 387.52756l130.39368 0" fill-rule="evenodd"/><path fill="#000000" fill-opacity="0.0" d="m574.4278 387.52756l102.299255 0" fill-rule="evenodd"/><path stroke="#000000" stroke-width="1.0" stroke-linejoin="round" stroke-linecap="butt" d="m574.4278 387.52756l102.299255 0" fill-rule="evenodd"/><path fill="#000000" fill-opacity="0.0" d="m444.03412 460.8609l85.4173 0" fill-rule="evenodd"/><path stroke="#000000" stroke-width="1.0" stroke-linejoin="round" stroke-linecap="butt" d="m444.03412 460.8609l85.4173 0" fill-rule="evenodd"/><path fill="#000000" fill-opacity="0.0" d="m574.4278 460.8609l102.299255 0" fill-rule="evenodd"/><path stroke="#000000" stroke-width="1.0" stroke-linejoin="round" stroke-linecap="butt" d="m574.4278 460.8609l102.299255 0" fill-rule="evenodd"/><path fill="#000000" fill-opacity="0.0" d="m444.03412 534.1942l131.52759 0" fill-rule="evenodd"/><path stroke="#000000" stroke-width="1.0" stroke-linejoin="round" stroke-linecap="butt" d="m444.03412 534.1942l131.52759 0" fill-rule="evenodd"/><path fill="#000000" fill-opacity="0.0" d="m574.4278 534.1942l102.299255 0" fill-rule="evenodd"/><path stroke="#000000" stroke-width="1.0" stroke-linejoin="round" stroke-linecap="butt" d="m574.4278 534.1942l102.299255 0" fill-rule="evenodd"/><path fill="#000000" fill-opacity="0.0" d="m529.4514 314.1942l35.968506 -37.102356" fill-rule="evenodd"/><path stroke="#000000" stroke-width="1.0" stroke-linejoin="round" stroke-linecap="butt" d="m529.4514 314.1942l35.968506 -37.102356" fill-rule="evenodd"/><path fill="#000000" fill-opacity="0.0" d="m529.4514 460.8609l35.968506 -37.102356" fill-rule="evenodd"/><path stroke="#000000" stroke-width="1.0" stroke-linejoin="round" stroke-linecap="butt" d="m529.4514 460.8609l35.968506 -37.102356" fill-rule="evenodd"/></g></svg>